<?xml version="1.0" encoding="UTF-8"?>
<svg xmlns="http://www.w3.org/2000/svg" xmlns:xlink="http://www.w3.org/1999/xlink" width="4000px" height="2809px" viewBox="0 0 4000 2809" version="1.1">
<g id="surface1">
<path style="fill:none;stroke-width:1;stroke-linecap:butt;stroke-linejoin:miter;stroke:rgb(16.470588%,16.470588%,16.470588%);stroke-opacity:1;stroke-dasharray:16,16;stroke-miterlimit:4;" d="M 0.500781 0 L 0.500781 900.00009 " transform="matrix(3.120124,0,0,3.121111,0,0)"/>
<path style="fill:none;stroke-width:1;stroke-linecap:butt;stroke-linejoin:miter;stroke:rgb(16.470588%,16.470588%,16.470588%);stroke-opacity:1;stroke-dasharray:16,16;stroke-miterlimit:4;" d="M 80.499365 0 L 80.499365 900.00009 " transform="matrix(3.120124,0,0,3.121111,0,0)"/>
<path style="fill:none;stroke-width:1;stroke-linecap:butt;stroke-linejoin:miter;stroke:rgb(16.470588%,16.470588%,16.470588%);stroke-opacity:1;stroke-dasharray:16,16;stroke-miterlimit:4;" d="M 160.499201 0 L 160.499201 900.00009 " transform="matrix(3.120124,0,0,3.121111,0,0)"/>
<path style="fill:none;stroke-width:1;stroke-linecap:butt;stroke-linejoin:miter;stroke:rgb(16.470588%,16.470588%,16.470588%);stroke-opacity:1;stroke-dasharray:16,16;stroke-miterlimit:4;" d="M 240.50154 0 L 240.50154 900.00009 " transform="matrix(3.120124,0,0,3.121111,0,0)"/>
<path style="fill:none;stroke-width:1;stroke-linecap:butt;stroke-linejoin:miter;stroke:rgb(16.470588%,16.470588%,16.470588%);stroke-opacity:1;stroke-dasharray:16,16;stroke-miterlimit:4;" d="M 320.500124 0 L 320.500124 900.00009 " transform="matrix(3.120124,0,0,3.121111,0,0)"/>
<path style="fill:none;stroke-width:1;stroke-linecap:butt;stroke-linejoin:miter;stroke:rgb(16.470588%,16.470588%,16.470588%);stroke-opacity:1;stroke-dasharray:16,16;stroke-miterlimit:4;" d="M 400.502464 0 L 400.502464 900.00009 " transform="matrix(3.120124,0,0,3.121111,0,0)"/>
<path style="fill:none;stroke-width:1;stroke-linecap:butt;stroke-linejoin:miter;stroke:rgb(16.470588%,16.470588%,16.470588%);stroke-opacity:1;stroke-dasharray:16,16;stroke-miterlimit:4;" d="M 480.501048 0 L 480.501048 900.00009 " transform="matrix(3.120124,0,0,3.121111,0,0)"/>
<path style="fill:none;stroke-width:1;stroke-linecap:butt;stroke-linejoin:miter;stroke:rgb(16.470588%,16.470588%,16.470588%);stroke-opacity:1;stroke-dasharray:16,16;stroke-miterlimit:4;" d="M 560.500883 0 L 560.500883 900.00009 " transform="matrix(3.120124,0,0,3.121111,0,0)"/>
<path style="fill:none;stroke-width:1;stroke-linecap:butt;stroke-linejoin:miter;stroke:rgb(16.470588%,16.470588%,16.470588%);stroke-opacity:1;stroke-dasharray:16,16;stroke-miterlimit:4;" d="M 640.501971 0 L 640.501971 900.00009 " transform="matrix(3.120124,0,0,3.121111,0,0)"/>
<path style="fill:none;stroke-width:1;stroke-linecap:butt;stroke-linejoin:miter;stroke:rgb(16.470588%,16.470588%,16.470588%);stroke-opacity:1;stroke-dasharray:16,16;stroke-miterlimit:4;" d="M 720.500555 0 L 720.500555 900.00009 " transform="matrix(3.120124,0,0,3.121111,0,0)"/>
<path style="fill:none;stroke-width:1;stroke-linecap:butt;stroke-linejoin:miter;stroke:rgb(16.470588%,16.470588%,16.470588%);stroke-opacity:1;stroke-dasharray:16,16;stroke-miterlimit:4;" d="M 800.499138 0 L 800.499138 900.00009 " transform="matrix(3.120124,0,0,3.121111,0,0)"/>
<path style="fill:none;stroke-width:1;stroke-linecap:butt;stroke-linejoin:miter;stroke:rgb(16.470588%,16.470588%,16.470588%);stroke-opacity:1;stroke-dasharray:16,16;stroke-miterlimit:4;" d="M 880.501478 0 L 880.501478 900.00009 " transform="matrix(3.120124,0,0,3.121111,0,0)"/>
<path style="fill:none;stroke-width:1;stroke-linecap:butt;stroke-linejoin:miter;stroke:rgb(16.470588%,16.470588%,16.470588%);stroke-opacity:1;stroke-dasharray:16,16;stroke-miterlimit:4;" d="M 960.501314 0 L 960.501314 900.00009 " transform="matrix(3.120124,0,0,3.121111,0,0)"/>
<path style="fill:none;stroke-width:1;stroke-linecap:butt;stroke-linejoin:miter;stroke:rgb(16.470588%,16.470588%,16.470588%);stroke-opacity:1;stroke-dasharray:16,16;stroke-miterlimit:4;" d="M 1040.499897 0 L 1040.499897 900.00009 " transform="matrix(3.120124,0,0,3.121111,0,0)"/>
<path style="fill:none;stroke-width:1;stroke-linecap:butt;stroke-linejoin:miter;stroke:rgb(16.470588%,16.470588%,16.470588%);stroke-opacity:1;stroke-dasharray:16,16;stroke-miterlimit:4;" d="M 1120.498481 0 L 1120.498481 900.00009 " transform="matrix(3.120124,0,0,3.121111,0,0)"/>
<path style="fill:none;stroke-width:1;stroke-linecap:butt;stroke-linejoin:miter;stroke:rgb(16.470588%,16.470588%,16.470588%);stroke-opacity:1;stroke-dasharray:16,16;stroke-miterlimit:4;" d="M 1200.500821 0 L 1200.500821 900.00009 " transform="matrix(3.120124,0,0,3.121111,0,0)"/>
<path style="fill:none;stroke-width:1;stroke-linecap:butt;stroke-linejoin:miter;stroke:rgb(16.470588%,16.470588%,16.470588%);stroke-opacity:1;stroke-dasharray:16,16;stroke-miterlimit:4;" d="M 1280.500657 0 L 1280.500657 900.00009 " transform="matrix(3.120124,0,0,3.121111,0,0)"/>
</g>
</svg>
